<svg version="1.2" xmlns="http://www.w3.org/2000/svg" viewBox="0 0 1000 1000" width="1000" height="1000">
	<title>2892357-ai</title>
	<style>
		.s0 { fill: #ffa000 } 
		.s1 { fill: #2f7ded } 
		.s2 { fill: #ffffff } 
		.s3 { fill: #233863 } 
		.s4 { fill: #374081 } 
		.s5 { fill: #ffba94 } 
		.s6 { fill: #fb8e77 } 
		.s7 { opacity: .5;fill: #fb8e77 } 
	</style>
	<g id="OBJECTS">
		<g id="&lt;Group&gt;">
			<g id="&lt;Group&gt;">
				<g id="&lt;Group&gt;">
					<g id="&lt;Group&gt;">
						<path id="&lt;Path&gt;" class="s0" d="m771.7 585.9h-153.8c-6.2 0-11.2-5-11.2-11.2v-93.3c0-7.5 6-13.6 13.5-13.6h110.3c1.1 0 2 0.9 2 2 0 1.1-0.9 2-2 2h-110.3c-5.3 0-9.5 4.3-9.5 9.6v93.3c0 4 3.2 7.2 7.2 7.2h153.8c4 0 7.2-3.2 7.2-7.2v-90.9c0-6.6-5.3-12-11.9-12h-21.4c-1.1 0-2-0.9-2-2 0-1.1 0.9-2 2-2h21.4c8.8 0 15.9 7.2 15.9 16v90.9c0 6.2-5 11.2-11.2 11.2z"/>
						<path id="&lt;Path&gt;" class="s0" d="m614 583.2c-0.6 0-1.1-0.3-1.5-0.7-0.8-0.8-0.7-2.1 0.1-2.8l62.9-55.9c0.8-0.8 2.1-0.7 2.8 0.1 0.7 0.8 0.7 2.1-0.2 2.8l-62.8 56c-0.4 0.3-0.9 0.5-1.3 0.5z"/>
						<path id="&lt;Path&gt;" class="s0" d="m775 584.7c-0.5 0-1-0.2-1.4-0.5l-62.7-55.6c-0.8-0.8-0.9-2-0.2-2.8 0.8-0.9 2-1 2.8-0.2l62.8 55.6c0.8 0.7 0.9 2 0.2 2.8-0.4 0.5-1 0.7-1.5 0.7z"/>
					</g>
					<path id="&lt;Path&gt;" class="s0" d="m694.8 539.2c-2.1 0-4.2-0.7-5.9-2l-79.6-58.5c-0.9-0.6-1.1-1.9-0.4-2.8 0.6-0.8 1.9-1 2.8-0.4l79.5 58.5c2.2 1.6 5 1.6 7.1 0l77.9-56.8c0.9-0.6 2.2-0.4 2.8 0.5 0.7 0.9 0.5 2.1-0.4 2.8l-77.9 56.7c-1.8 1.3-3.8 2-5.9 2z"/>
				</g>
				<g id="&lt;Group&gt;">
					<g id="&lt;Group&gt;">
						<path id="&lt;Path&gt;" class="s1" d="m773.1 455.4c1.6 1.2 3.9 1.2 5.5 0l66.2-48.3c-2.6-3.1-6.5-5.1-10.8-5.1h-118.7c-3.7 0-7 1.7-9.1 4.3 0.1 0.1 0.2 0.1 0.3 0.1z"/>
					</g>
					<g id="&lt;Group&gt;">
						<path id="&lt;Path&gt;" class="s1" d="m781 458.6c-1.6 1.1-3.4 1.7-5.2 1.7-1.8 0-3.6-0.6-5.1-1.7l-10.1-7.4-51.1 45.4q0 0-0.1 0.1c1.1 0.4 2.3 0.7 3.6 0.7h125.7q1.1 0 2.1-0.3l-50.9-45z"/>
					</g>
					<g id="&lt;Group&gt;">
						<path id="&lt;Path&gt;" class="s1" d="m757.3 448.7l-53-38.9q-0.5 1.8-0.5 3.7v74.7c0 2.4 0.9 4.7 2.5 6.3 0.1-0.3 0.3-0.6 0.6-0.9z"/>
					</g>
					<g id="&lt;Group&gt;">
						<path id="&lt;Path&gt;" class="s1" d="m844.3 494.9c0.1 0.1 0.1 0.2 0.2 0.4 2.1-1.7 3.4-4.3 3.4-7.1v-72.3c0-1.9-0.4-3.7-1-5.3l-53.7 39.1z"/>
					</g>
				</g>
				<g id="&lt;Group&gt;" style="opacity: .7">
					<g id="&lt;Group&gt;">
						<path id="&lt;Compound Path&gt;" fill-rule="evenodd" class="s2" d="m848.1 683h-104.4c-6.2 0-11.2-5.1-11.2-11.2v-60.6c0-7.5 6.1-13.5 13.5-13.5h97.4c8.8 0 15.9 7.1 15.9 15.9v58.2c0 6.1-5 11.2-11.2 11.2zm-102.1-81.3c-5.2 0-9.5 4.2-9.5 9.5v60.6c0 3.9 3.2 7.2 7.2 7.2h104.4c4 0 7.2-3.3 7.2-7.2v-58.2c0-6.6-5.3-11.9-11.9-11.9z"/>
						<path id="&lt;Path&gt;" class="s2" d="m739.6 680.5l-2.6-3 44.8-39.8 2.6 3z"/>
						<path id="&lt;Path&gt;" class="s2" d="m851.8 681.6l-44.8-39.6 2.7-3 44.7 39.6z"/>
					</g>
					<path id="&lt;Path&gt;" class="s2" d="m795.9 649.7c-1.6 0-3.2-0.5-4.5-1.5l-56.8-41.7 2.4-3.3 56.7 41.7c1.3 1 3.1 1 4.4 0l58.8-42.8 2.4 3.2-58.8 42.9c-1.4 1-3 1.5-4.6 1.5z"/>
				</g>
				<g id="&lt;Group&gt;">
					<g id="&lt;Group&gt;">
						<path id="&lt;Path&gt;" class="s0" d="m872.3 402.4c0 13.8-11.3 25.1-25.2 25.1-13.8 0-25.1-11.3-25.1-25.1 0-13.9 11.3-25.2 25.1-25.2 13.9 0 25.2 11.3 25.2 25.2z"/>
					</g>
					<g id="&lt;Group&gt;">
						<g id="&lt;Group&gt;">
							<path id="&lt;Compound Path&gt;" class="s2" d="m841.6 412.1h-2.8v-16.7l-2.8 1.8v-2.9l2.8-1.9h2.8z"/>
							<path id="&lt;Compound Path&gt;" fill-rule="evenodd" class="s2" d="m847.5 410.8q-1.5-1.5-1.5-4.1v-8.9q0-2.7 1.5-4.1 1.4-1.5 4.1-1.5 2.8 0 4.2 1.5 1.4 1.4 1.4 4.1v8.9q0 2.6-1.4 4.1-1.4 1.5-4.2 1.5-2.7 0-4.1-1.5zm6.3-1.9q0.7-0.8 0.7-2.2v-8.9q0-1.4-0.7-2.2-0.7-0.8-2.2-0.8-1.4 0-2.1 0.8-0.7 0.8-0.7 2.2v8.9q0 1.4 0.7 2.2 0.7 0.8 2.1 0.8 1.5 0 2.2-0.8z"/>
						</g>
					</g>
				</g>
			</g>
			<g id="&lt;Group&gt;">
				<g id="&lt;Group&gt;">
					<g id="&lt;Group&gt;">
						<path id="&lt;Compound Path&gt;" fill-rule="evenodd" class="s1" d="m289.6 395.4c-1.4 0-2.8-0.6-3.7-1.6l-17-17.6c-1.1-1.2-2.7-1.8-4.3-1.8l-166.4-0.2c-9.2 0-16.7-7.6-16.7-16.8v-63.1c0-9.2 7.5-16.7 16.8-16.7h177.4c10.5 0 19 8.5 19 19.1v93.5c0 2.1-1.2 4-3.2 4.8q-1 0.4-1.9 0.4zm-191.3-113.8c-7.1 0-12.8 5.7-12.8 12.7v63.1c0 7 5.7 12.8 12.8 12.8l166.3 0.2c2.7 0 5.3 1.1 7.2 3l16.9 17.6c0.5 0.5 1.1 0.4 1.3 0.3 0.2-0.1 0.7-0.4 0.7-1.1v-93.5c0-8.4-6.7-15.1-15-15.1z"/>
						<path id="&lt;Path&gt;" class="s0" d="m248 314.9h-42.6c-1.1 0-2-0.9-2-2 0-1.1 0.9-2 2-2h42.6c1.2 0 2 0.9 2 2 0 1.1-0.8 2-2 2z"/>
						<path id="&lt;Path&gt;" class="s0" d="m179.5 314.9h-65.3c-1.1 0-2-0.9-2-2 0-1.1 0.9-2 2-2h65.3c1.1 0 2 0.9 2 2 0 1.1-0.9 2-2 2z"/>
						<path id="&lt;Path&gt;" class="s0" d="m248 330.1h-107.3c-1.1 0-2-0.9-2-2 0-1.1 0.9-2 2-2h107.3c1.2 0 2 0.9 2 2 0 1.1-0.8 2-2 2z"/>
						<path id="&lt;Path&gt;" class="s0" d="m248 345.3h-71.1c-1.1 0-2-0.9-2-2 0-1.1 0.9-2 2-2h71.1c1.2 0 2 0.9 2 2 0 1.1-0.8 2-2 2z"/>
					</g>
					<g id="&lt;Group&gt;">
						<g id="&lt;Group&gt;">
							<path id="&lt;Path&gt;" class="s0" d="m266.7 287.8h-57.8c-1.8 0-3.6 0.7-4.9 2.1l-14.4 14.9c-1.6 1.7-4.6 0.5-4.6-1.9v-22.6-56.8c0-8 6.5-14.5 14.5-14.5h69.5c6.5 0 11.8 5.3 11.8 11.8v52.9c0 7.8-6.3 14.1-14.1 14.1z"/>
						</g>
						<g id="&lt;Group&gt;">
							<path id="&lt;Path&gt;" class="s2" d="m215.5 250.1c0 2.8-2.2 5-4.9 5-2.8 0-5-2.2-5-5 0-2.7 2.2-4.9 5-4.9 2.7 0 4.9 2.2 4.9 4.9z"/>
						</g>
						<g id="&lt;Group&gt;">
							<path id="&lt;Path&gt;" class="s2" d="m238.7 250.1c0 2.8-2.2 5-4.9 5-2.8 0-5-2.2-5-5 0-2.7 2.2-4.9 5-4.9 2.7 0 4.9 2.2 4.9 4.9z"/>
						</g>
						<g id="&lt;Group&gt;">
							<path id="&lt;Path&gt;" class="s2" d="m262.4 250.1c0 2.8-2.2 5-4.9 5-2.7 0-5-2.2-5-5 0-2.7 2.3-4.9 5-4.9 2.7 0 4.9 2.2 4.9 4.9z"/>
						</g>
					</g>
				</g>
				<g id="&lt;Group&gt;">
					<g id="&lt;Group&gt;">
						<path id="&lt;Path&gt;" class="s1" d="m146.8 458.5c0 35.2 28.5 63.7 63.7 63.7 35.2 0 63.7-28.5 63.7-63.7 0-35.2-28.5-63.7-63.7-63.7-35.2 0-63.7 28.5-63.7 63.7z"/>
					</g>
					<g id="&lt;Group&gt;">
						<g id="&lt;Group&gt;">
							<g id="&lt;Group&gt;">
								<path id="&lt;Compound Path&gt;" fill-rule="evenodd" class="s2" d="m210.5 493.5c-7 0-12.9-5.3-13.8-12.3l-0.2-2.2h28l-0.2 2.2c-0.8 7-6.8 12.3-13.8 12.3zm-9.3-10.5c1.4 3.8 5.1 6.5 9.3 6.5 4.2 0 7.9-2.7 9.3-6.5z"/>
								<path id="&lt;Compound Path&gt;" fill-rule="evenodd" class="s2" d="m235.1 469.8h-49.2v-22.7c0-13 10.6-23.6 23.6-23.6h2c13 0 23.6 10.6 23.6 23.6zm-45.2-4h41.2v-18.6c0-10.8-8.8-19.6-19.6-19.6h-2c-10.8 0-19.6 8.8-19.6 19.6z"/>
								<path id="&lt;Compound Path&gt;" fill-rule="evenodd" class="s2" d="m233.1 483h-45.2c-4.6 0-8.3-3.8-8.3-8.3v-0.6c0-4.6 3.7-8.3 8.3-8.3h45.2c4.6 0 8.4 3.7 8.4 8.3v0.6c0 4.5-3.8 8.3-8.4 8.3zm-45.2-13.2c-2.4 0-4.3 1.9-4.3 4.3v0.6c0 2.3 1.9 4.3 4.3 4.3h45.2c2.4 0 4.4-2 4.4-4.3v-0.6c0-2.4-2-4.3-4.4-4.3z"/>
							</g>
						</g>
					</g>
				</g>
				<g id="&lt;Group&gt;">
					<g id="&lt;Group&gt;">
						<path id="&lt;Path&gt;" class="s1" d="m265.2 140.7c0 22.1 17.9 40 40 40 22.1 0 40.1-17.9 40.1-40 0-22.1-18-40-40.1-40-22.1 0-40 17.9-40 40z"/>
					</g>
					<g id="&lt;Group&gt;">
						<g id="&lt;Group&gt;">
							<path id="&lt;Compound Path&gt;" class="s2" d="m303 124.9h4.5v23.5h-4.5zm0 27.2h4.5v4.5h-4.5z"/>
						</g>
					</g>
				</g>
			</g>
			<g id="&lt;Group&gt;">
				<g id="&lt;Group&gt;">
					<path id="&lt;Path&gt;" class="s0" d="m845.2 230h-209.8c-11.2 0-20.2 9-20.2 20.2v79.1 31.5c0 3.3 4.1 5 6.4 2.6l20-20.8c1.8-1.9 4.3-2.9 6.8-2.9l196.8-0.2c9.6 0 17.4-7.8 17.4-17.5v-74.6c0-9.6-7.8-17.4-17.4-17.4z"/>
				</g>
				<path id="&lt;Path&gt;" class="s2" d="m718.4 271.4h-50.4c-1.1 0-2-0.9-2-2 0-1.1 0.9-2 2-2h50.4c1.1 0 2 0.9 2 2 0 1.1-0.9 2-2 2z"/>
				<path id="&lt;Path&gt;" class="s2" d="m826.3 271.4h-77.2c-1.1 0-2-0.9-2-2 0-1.1 0.9-2 2-2h77.2c1.1 0 2 0.9 2 2 0 1.1-0.9 2-2 2z"/>
				<path id="&lt;Path&gt;" class="s2" d="m795 289.3h-127c-1.1 0-2-0.9-2-2 0-1.1 0.9-2 2-2h127c1.1 0 2 0.9 2 2 0 1.1-0.9 2-2 2z"/>
				<path id="&lt;Path&gt;" class="s2" d="m752.1 307.3h-84.1c-1.1 0-2-0.9-2-2 0-1.1 0.9-2 2-2h84.1c1.1 0 2 0.9 2 2 0 1.1-0.9 2-2 2z"/>
				<g id="&lt;Group&gt;">
					<g id="&lt;Group&gt;">
						<path id="&lt;Path&gt;" class="s1" d="m578.4 234.2h58.5c1.8 0 3.6 0.7 4.9 2.1l14.6 15.1c1.7 1.7 4.6 0.5 4.6-1.9v-22.9-57.4c0-8.1-6.5-14.7-14.6-14.7h-70.3c-6.6 0-11.9 5.3-11.9 11.9v53.5c0 7.9 6.3 14.3 14.2 14.3z"/>
					</g>
					<g id="&lt;Group&gt;">
						<path id="&lt;Path&gt;" class="s2" d="m630.2 196.1c0 2.8 2.2 5 5 5 2.8 0 5-2.2 5-5 0-2.8-2.2-5-5-5-2.8 0-5 2.2-5 5z"/>
					</g>
					<g id="&lt;Group&gt;">
						<path id="&lt;Path&gt;" class="s2" d="m606.7 196.1c0 2.8 2.3 5 5 5 2.8 0 5-2.2 5-5 0-2.8-2.2-5-5-5-2.7 0-5 2.2-5 5z"/>
					</g>
					<g id="&lt;Group&gt;">
						<path id="&lt;Path&gt;" class="s2" d="m582.7 196.1c0 2.8 2.3 5 5 5 2.8 0 5-2.2 5-5 0-2.8-2.2-5-5-5-2.7 0-5 2.2-5 5z"/>
					</g>
				</g>
				<g id="&lt;Group&gt;">
					<g id="&lt;Group&gt;">
						<path id="&lt;Path&gt;" class="s1" d="m885.2 244.3c0 17.2-13.9 31.1-31.1 31.1-17.1 0-31.1-13.9-31.1-31.1 0-17.2 14-31.1 31.1-31.1 17.2 0 31.1 13.9 31.1 31.1z"/>
					</g>
					<g id="&lt;Group&gt;">
						<g id="&lt;Group&gt;">
							<path id="&lt;Compound Path&gt;" class="s2" d="m857.7 258.8h-4.3v-25.8l-4.3 2.7v-4.5l4.3-2.9h4.3z"/>
						</g>
					</g>
				</g>
			</g>
		</g>
		<g id="&lt;Group&gt;" style="opacity: .6">
			<path id="&lt;Path&gt;" class="s2" d="m584.9 695.2h-52.3c-1.1 0-2-0.9-2-2 0-1.1 0.9-2 2-2h52.3c1.1 0 2 0.9 2 2 0 1.1-0.9 2-2 2z"/>
			<path id="&lt;Path&gt;" class="s2" d="m696.9 695.2h-80.1c-1.1 0-2-0.9-2-2 0-1.1 0.9-2 2-2h80.1c1.1 0 2 0.9 2 2 0 1.1-0.9 2-2 2z"/>
			<path id="&lt;Path&gt;" class="s2" d="m664.4 713.9h-131.8c-1.1 0-2-0.9-2-2 0-1.2 0.9-2 2-2h131.8c1.1 0 2 0.8 2 2 0 1.1-0.9 2-2 2z"/>
			<path id="&lt;Path&gt;" class="s2" d="m619.9 732.5h-87.3c-1.1 0-2-0.9-2-2 0-1.1 0.9-2 2-2h87.3c1.1 0 2 0.9 2 2 0 1.1-0.9 2-2 2z"/>
			<path id="&lt;Path&gt;" class="s2" d="m247.5 665.7h-135.3c-1.1 0-2-0.9-2-2 0-1.1 0.9-2 2-2h135.3c1.1 0 2 0.9 2 2 0 1.1-0.9 2-2 2z"/>
			<path id="&lt;Path&gt;" class="s2" d="m247.5 623.9h-135.3c-1.1 0-2-0.9-2-2 0-1.1 0.9-2 2-2h135.3c1.1 0 2 0.9 2 2 0 1.1-0.9 2-2 2z"/>
			<path id="&lt;Path&gt;" class="s2" d="m247.5 644.8h-72.9c-1.1 0-2-0.9-2-2 0-1.1 0.9-2 2-2h72.9c1.1 0 2 0.9 2 2 0 1.1-0.9 2-2 2z"/>
			<path id="&lt;Path&gt;" class="s2" d="m247.5 601.7h-72.9c-1.1 0-2-0.9-2-2 0-1.1 0.9-2 2-2h72.9c1.1 0 2 0.9 2 2 0 1.1-0.9 2-2 2z"/>
			<path id="&lt;Path&gt;" class="s2" d="m247.5 581.8h-49.2c-1.1 0-2-0.9-2-2 0-1.1 0.9-2 2-2h49.2c1.1 0 2 0.9 2 2 0 1.1-0.9 2-2 2z"/>
		</g>
		<g id="&lt;Group&gt;">
			<path id="&lt;Path&gt;" class="s3" d="m546.3 279.3c0 0-0.2 0-0.1 0 24.5-32.7-6.2-76.1-32.9-78.8-9.1-11.3-21.3-20.5-36.2-26-7.8-2.9-15.9-4.5-23.9-4.9-0.2-20.3-16.6-36.6-36.9-36.6-20.3 0-36.8 16.5-36.8 36.8 0 9.5 3.6 18.1 9.5 24.6-6 6-11.1 13-15 20.9q-1.4 2.8-2.6 5.6c-29.9-1-55.5 21.6-57.9 51.8-1.7 21.3 8.8 40.7 25.5 51.6-10.2 5.3-16.6 12.7-17.3 21.3-0.7 9.9 6.4 19.5 18.6 27-2.5 5.1-3.9 10.7-3.9 16.6 0 22.9 21 41.5 47 41.5 17.5 0 32.8-8.5 40.9-21.1 5.6 3.6 11.8 7 18.5 9.9 34.6 15.1 69 12.7 76.8-5.3 2.2-4.9 2.1-10.4 0.2-16.2q3.1-0.5 6.1-1.4c69.9-22.4 79.4-90.6 20.4-117.3z"/>
			<g id="&lt;Group&gt;">
				<g id="&lt;Group&gt;">
					<g id="&lt;Group&gt;">
						<g id="&lt;Group&gt;">
							<g id="&lt;Group&gt;">
								<path id="&lt;Path&gt;" class="s1" d="m559.5 577.5l-4.7-13.2 35.1-20 1.1-0.6v-3.4c0-64.5-41.4-116.7-92.5-116.7h-54.2l0.7 1.3-95.7 0.8c-23.8 0.2-44 17.3-51.9 41.2l-67.3 150.4 9.7 1.2 55.2 6.8 1.2 152.8 236.9 0.1 7.8-124.8 8.9-14.5 4.3-7c9.8-15.9 11.8-36.4 5.4-54.4z"/>
							</g>
						</g>
						<path id="&lt;Path&gt;" class="s4" d="m361.4 634.1l-56.1-6.6c-0.5 0-0.9-0.5-0.9-1.1 0.1-0.5 0.6-0.9 1.1-0.9l54.4 6.4 15.4-66.6c0.1-0.5 0.7-0.9 1.2-0.7 0.5 0.1 0.9 0.6 0.7 1.2z"/>
						<g id="&lt;Group&gt;">
							<g id="&lt;Group&gt;">
								<path id="&lt;Path&gt;" class="s3" d="m420 490.9c-32.7 0-59.4-26.6-59.4-59.4v-6.6c0-0.9 0.7-1.5 1.5-1.5 0.8 0 1.4 0.6 1.4 1.5v6.6c0 31.2 25.4 56.5 56.5 56.5 31.1 0 56.4-25.3 56.4-56.5v-6.6c0-0.9 0.6-1.5 1.4-1.5 0.8 0 1.5 0.6 1.5 1.5v6.6c0 32.8-26.6 59.4-59.3 59.4z"/>
							</g>
							<g id="&lt;Group&gt;">
								<path id="&lt;Path&gt;" class="s3" d="m380.4 458.6c-0.5 0-1-0.2-1.2-0.7-5.6-8.1-8.5-17.6-8.5-27.5v-5.5c0-0.9 0.7-1.5 1.5-1.5 0.8 0 1.4 0.6 1.4 1.5v5.5c0 9.3 2.8 18.3 8 25.9 0.4 0.7 0.2 1.6-0.4 2q-0.4 0.3-0.8 0.3z"/>
							</g>
							<g id="&lt;Group&gt;">
								<path id="&lt;Path&gt;" class="s3" d="m420 479.6c-11.3 0-21.9-3.7-30.7-10.7-0.6-0.5-0.7-1.4-0.2-2 0.5-0.7 1.4-0.8 2-0.3 8.3 6.6 18.3 10.1 28.9 10.1 10.6 0 20.5-3.5 28.8-10.1 0.6-0.5 1.6-0.3 2 0.3 0.5 0.6 0.4 1.5-0.2 2-8.8 7-19.4 10.7-30.6 10.7z"/>
							</g>
							<g id="&lt;Group&gt;">
								<path id="&lt;Path&gt;" class="s3" d="m461.5 455.4q-0.3 0-0.7-0.2c-0.7-0.4-0.9-1.3-0.5-2 3.9-6.9 6-14.8 6-22.8v-5.5c0-0.9 0.7-1.5 1.5-1.5 0.8 0 1.4 0.6 1.4 1.5v5.5c0 8.5-2.2 16.9-6.4 24.3-0.3 0.4-0.7 0.7-1.3 0.7z"/>
							</g>
						</g>
					</g>
				</g>
				<g id="&lt;Group&gt;">
					<g id="&lt;Group&gt;">
						<g id="&lt;Group&gt;">
							<path id="&lt;Path&gt;" class="s5" d="m561 818.6l-37.3-56.2c-8.6-10.9-13.5-24.2-23.4-26.9l-6.7-1.7v-0.1l-167.5-41.6 13.8-61.4-100.1-12.2-31 102c-2 8.8-1.9 17.6 0 25.8 4.8 25.8 27.1 46.1 55.1 46.6l176.7-0.4c18.4 19.2 75.7 58.6 75.7 58.6 2.7 2.3 6.9 2 9.2-0.7 1.6-1.8 2-4.1 1.3-6.2q0.5-0.1 0.5-0.1c0.2 0 0.3 0.1 0.5 0.1l2.4 2.4c2.9 2.8 7.5 2.7 10.2-0.2l0.2-0.1c1.2-1.3 1.9-2.9 2-4.6v0.1c2.8 2.8 7.4 2.8 10.2 0.1l0.2-0.2c2.8-2.8 2.9-7.4 0.1-10.2l-0.7-0.7q-0.1-0.4-0.3-0.8c2.8 1.6 6.3 1.2 8.6-1.1l0.2-0.1c2.8-2.8 2.9-7.4 0.1-10.2z"/>
						</g>
						<path id="&lt;Path&gt;" class="s6" d="m552.7 831.1c-0.3 0-0.5-0.1-0.7-0.3l-22.2-22.7c-0.4-0.4-0.4-1.1 0-1.4 0.4-0.4 1-0.4 1.4 0l22.2 22.7c0.4 0.4 0.4 1 0 1.4q-0.3 0.3-0.7 0.3z"/>
						<path id="&lt;Path&gt;" class="s6" d="m540.9 840c-0.3 0-0.5-0.1-0.7-0.3l-22.2-22.7c-0.4-0.4-0.4-1 0-1.4 0.4-0.4 1-0.4 1.4 0l22.2 22.7c0.4 0.4 0.4 1 0 1.4q-0.3 0.3-0.7 0.3z"/>
						<path id="&lt;Path&gt;" class="s6" d="m526.9 844.7q-0.4 0-0.7-0.3l-22.9-22.1c-0.4-0.3-0.4-1-0.1-1.4 0.4-0.4 1.1-0.4 1.5 0l22.9 22c0.4 0.4 0.4 1.1 0 1.5-0.2 0.2-0.5 0.3-0.7 0.3z"/>
					</g>
					<path id="&lt;Path&gt;" class="s6" d="m342.9 697.2q-0.2 0-0.4 0l-51.5-16.6c-0.6-0.1-0.8-0.7-0.7-1.2 0.2-0.6 0.8-0.9 1.3-0.7l51.6 16.6c0.5 0.2 0.8 0.7 0.6 1.2-0.1 0.5-0.5 0.7-0.9 0.7z"/>
				</g>
			</g>
			<g id="&lt;Group&gt;">
				<g id="&lt;Group&gt;">
					<g id="&lt;Group&gt;">
						<path id="&lt;Path&gt;" class="s5" d="m468 251.5c-9.8 1.4-19.2 10.5-26.6 20.5q-1.8 2.4-3.8 4.3c-10 9.4-24.6 10.4-35.9 4.2l-2.8-0.5c-12.2-2.2-24 6-26.1 18.3l-0.1 0.4c-2.2 12.3 6 24 18.2 26.2l5.6 1-1.5 8.2c-0.8 4.9-1.1 9.8-0.7 14.6l-12.9 72.4c-3.8 21 10.2 41 31.1 44.7 21 3.7 41-10.2 44.7-31.2l5.2-28.9c28.4 0.1 53.7-20.2 58.9-49.1l1-5.6q0 0 0 0l12.2-68.7c-13.8-1.7-62.5-9.3-66.5-30.8z"/>
					</g>
				</g>
				<path id="&lt;Path&gt;" class="s7" d="m453.1 399.2l-1.1-0.2c-29.8-5.3-50.5-31.9-49.1-61.4 0.2-4.8-2.2-9.4-6.4-11.7l-1.5 8.2c-3.2 18.1 2.1 35.7 13.1 48.8l48.6 55.3 5.7-32-1.2-0.5c28.9 0.7 54.8-19.8 60.1-49.1l1-5.6c-5.8 32.4-36.8 54-69.2 48.2z"/>
				<path id="&lt;Path&gt;" class="s6" d="m462.4 383.6c-0.3 0-0.6-0.1-0.7-0.3-0.4-0.4-0.4-1 0-1.4 0 0 5.7-5.3 12.4-1.8 0.5 0.2 0.7 0.8 0.4 1.3-0.2 0.5-0.8 0.7-1.3 0.5-5.4-2.9-9.9 1.3-10.1 1.5q-0.3 0.2-0.7 0.2z"/>
				<g id="&lt;Group&gt;">
					<g id="&lt;Group&gt;">
						<path id="&lt;Path&gt;" class="s3" d="m478.5 317.8c-0.3 2-2.3 3.4-4.3 3-2-0.3-3.4-2.3-3-4.3 0.4-2 2.3-3.4 4.3-3 2 0.3 3.4 2.3 3 4.3z"/>
					</g>
					<g id="&lt;Group&gt;">
						<path id="&lt;Path&gt;" class="s3" d="m522.6 325.7c-0.3 2-2.3 3.3-4.3 3-2-0.4-3.4-2.3-3-4.3 0.4-2.1 2.3-3.4 4.3-3.1 2 0.4 3.4 2.3 3 4.4z"/>
					</g>
					<path id="&lt;Path&gt;" class="s6" d="m486.8 346c-1.8 0-4-0.3-6.4-1.2-0.6-0.1-0.9-0.7-0.7-1.2 0.2-0.5 0.8-0.8 1.3-0.7 8.4 2.8 12-0.6 13.1-2.3 0.2-0.2 0.3-0.6 0.3-1l-4.3-28.2c-0.1-0.5 0.3-1 0.8-1.1 0.6-0.1 1.1 0.3 1.2 0.8l4.3 28.2c0.1 0.9-0.1 1.8-0.6 2.5-1.1 1.5-3.7 4.2-9 4.2z"/>
					<path id="&lt;Path&gt;" class="s2" d="m458.5 367.6l-7.8-4.4c-9.5-5.6-12.8-17.8-7.3-27.4l0.6-0.9 29.3 16.9-8 14c-1.4 2.4-4.5 3.2-6.8 1.8z"/>
					<path id="&lt;Compound Path&gt;" fill-rule="evenodd" class="s2" d="m463.1 335.6c-12.9 0-23.4-10.5-23.4-23.3 0-12.9 10.5-23.4 23.4-23.4q0 0 0 0c6.2 0 12.1 2.4 16.5 6.8 4.4 4.4 6.8 10.3 6.8 16.5 0.1 12.9-10.4 23.4-23.3 23.4q0 0 0 0zm-19.4-23.3c0 10.6 8.7 19.3 19.4 19.3q0 0 0 0c10.7 0 19.4-8.7 19.3-19.4 0-5.1-2-10-5.6-13.7-3.7-3.6-8.5-5.6-13.7-5.6q0 0 0 0c-10.7 0-19.4 8.7-19.4 19.4z"/>
					<path id="&lt;Compound Path&gt;" fill-rule="evenodd" class="s2" d="m516.2 345.9c-12.9 0-23.3-10.4-23.4-23.3 0-12.9 10.5-23.4 23.4-23.4q0 0 0 0c12.9 0 23.3 10.5 23.3 23.4 0.1 12.8-10.4 23.3-23.3 23.3q0 0 0 0zm-19.4-23.3c0 10.7 8.7 19.3 19.4 19.3q0 0 0 0c10.7 0 19.4-8.7 19.3-19.3 0-10.7-8.6-19.4-19.3-19.4q0 0 0 0c-10.7 0-19.4 8.7-19.4 19.4z"/>
					<path id="&lt;Path&gt;" class="s2" d="m494.2 320q-0.1 0-0.2 0l-8.3-0.8c-1.1-0.1-1.9-1.1-1.8-2.2 0.1-1.1 1.1-1.9 2.2-1.8l8.3 0.8c1.1 0.1 1.9 1.1 1.8 2.2-0.1 1-1 1.8-2 1.8z"/>
					<g id="&lt;Group&gt;">
						<g id="&lt;Group&gt;">
							<g id="&lt;Group&gt;">
								<g id="&lt;Group&gt;">
									<g id="&lt;Group&gt;">
										<path id="&lt;Path&gt;" class="s3" d="m460 281.1c1.3 0.5 2.9 0.3 4.5 0.1 1.5-0.2 3.1-0.3 4.5-0.4 1.4-0.1 3-0.1 4.5-0.1 1.6 0 3.2 0.1 4.4-0.5 1.2-0.6 1.6-2.1 0.1-3.8-1.4-1.6-5-3.3-9.5-3-4.6 0.2-7.9 2.3-9.1 4-1.2 1.9-0.6 3.3 0.6 3.7z"/>
									</g>
								</g>
								<g id="&lt;Group&gt;">
									<g id="&lt;Group&gt;">
										<path id="&lt;Path&gt;" class="s3" d="m528.9 292.9c-1.4-0.1-2.8-0.9-4.2-1.6-1.4-0.7-2.8-1.4-4.1-1.9-1.2-0.6-2.7-1.2-4.2-1.8-1.4-0.6-3-1.1-3.9-2.1-0.9-0.9-0.7-2.4 1.3-3.5 1.9-1 5.8-1.3 10 0.6 4.2 1.8 6.5 4.9 7 7 0.5 2.2-0.6 3.3-1.9 3.3z"/>
									</g>
								</g>
							</g>
						</g>
					</g>
					<path id="&lt;Path&gt;" class="s6" d="m386.7 308.9c-0.4 0-0.8-0.3-0.9-0.8-0.2-0.5 0.2-1.1 0.7-1.2l7.1-1.8-3.2-12c-0.2-0.5 0.1-1.1 0.7-1.2 0.5-0.2 1.1 0.2 1.2 0.7l3.8 13.9-9.1 2.3q-0.1 0.1-0.3 0.1z"/>
				</g>
			</g>
			<g id="&lt;Group&gt;">
				<g id="&lt;Group&gt;">
					<g id="&lt;Group&gt;">
						<g id="&lt;Group&gt;">
							<path id="&lt;Path&gt;" class="s3" d="m641 507.9h-55.1c-5.4 0-9.7-4.4-9.7-9.8v-105.9c0-5.4 4.3-9.8 9.7-9.8h55.1c5.4 0 9.8 4.4 9.8 9.8v105.9c0 5.4-4.4 9.8-9.8 9.8z"/>
						</g>
					</g>
				</g>
				<g id="&lt;Group&gt;">
					<g id="&lt;Group&gt;">
						<g id="&lt;Group&gt;">
							<path id="&lt;Path&gt;" class="s5" d="m688.2 600.4l-6.1-111.2 1.5-13.5c2-18.9-3.6-37.7-15.4-52.6-1.1-1.4-2.2-2.8-3.3-4.1v-18.2c0-3.9-3.2-7.2-7.2-7.2-3.8 0-6.9 3.1-6.9 7v6.8c0 13.1-10.6 23.8-23.7 23.8h-20.7l-31-2.6c-4-0.4-7.6 2.6-7.9 6.7-0.3 3.3 1.7 6.2 4.6 7.4q-0.4 0.1-0.8 0.3l-0.8-0.1c-4.1-0.4-7.6 2.7-8 6.7-0.3 4 2.7 7.6 6.7 7.9-1.2 1.2-2.1 2.8-2.3 4.6-0.5 4 2.4 7.7 6.5 8.1l3.2 0.4q0.2 0.1 0.5 0.3 0 0 0.2 0.4c-2 0.9-3.6 2.7-4 5-0.6 3.5 1.8 6.9 5.3 7.5 0 0 22.8 7.5 32.7 10.3l-8.4 43.1-1.7 9.2-11.3-2.1-35.1 20 4.7 13.2c6.4 18 4.4 38.5-5.4 54.4l-4.3 7 17.2 7c21.6 8.9 52.9 18.1 76.1 12.6 7.5-1.7 13.3-3.9 17.8-6.5 16.7-8.7 28.3-28.6 27.3-51.6z"/>
						</g>
						<g id="&lt;Group&gt;">
							<path id="&lt;Path&gt;" class="s6" d="m603.4 446q0 0-0.1 0l-31.7-2.7c-0.5 0-1-0.5-0.9-1.1 0-0.5 0.5-0.9 1.1-0.9l31.7 2.7c0.6 0.1 1 0.6 0.9 1.1 0 0.5-0.5 0.9-1 0.9z"/>
							<path id="&lt;Path&gt;" class="s6" d="m604.1 460.8q-0.1 0-0.1 0l-31.8-2.7c-0.5 0-0.9-0.5-0.9-1.1 0.1-0.5 0.6-0.9 1.1-0.9l31.7 2.7c0.6 0.1 1 0.6 1 1.1-0.1 0.6-0.5 0.9-1 0.9z"/>
							<path id="&lt;Path&gt;" class="s6" d="m609.3 475.6q-0.1 0-0.1 0l-31.7-3.7c-0.5 0-0.9-0.5-0.8-1.1 0-0.5 0.5-0.9 1.1-0.8l31.6 3.6c0.6 0.1 1 0.6 0.9 1.1-0.1 0.5-0.5 0.9-1 0.9z"/>
						</g>
						<g id="&lt;Group&gt;">
							<path id="&lt;Path&gt;" class="s6" d="m588.2 599.7q-0.1 0-0.2 0c-0.6-0.2-0.9-0.7-0.8-1.3l15.9-67.3c0.1-0.5 0.6-0.8 1.2-0.7 0.5 0.1 0.9 0.7 0.7 1.2l-15.8 67.3c-0.2 0.5-0.6 0.8-1 0.8z"/>
						</g>
					</g>
					<path id="&lt;Path&gt;" class="s4" d="m554.4 565.8l-20.3-46.8c-0.2-0.5 0.1-1.1 0.6-1.3 0.5-0.3 1.1 0 1.3 0.5l19.3 44.7 35.2-20.1c0.5-0.2 1.1-0.1 1.4 0.4 0.2 0.5 0.1 1.1-0.4 1.4z"/>
				</g>
			</g>
		</g>
	</g>
</svg>